<?xml version="1.0" encoding="utf-8"?>
<!-- Generator: Adobe Illustrator 18.1.1, SVG Export Plug-In . SVG Version: 6.00 Build 0)  -->
<svg version="1.1" id="background_copy_1_" xmlns="http://www.w3.org/2000/svg" xmlns:xlink="http://www.w3.org/1999/xlink" x="0px"
	 y="0px" viewBox="0 0 1405 708" enable-background="new 0 0 1405 708" xml:space="preserve">
<g id="Rectangle_1">
	<g>
		<rect fill="#1E8BC3" width="1405" height="708"/>
	</g>
</g>
<g id="Rectangle_1_copy">
	<g>
		<rect fill="#1E8BC3" width="1405" height="219"/>
	</g>
</g>
<g id="Vector_Smart_Object_xA0_Image_1_" opacity="0.2">
	<g opacity="0.5">
		<g>
			<g>
				<g>
					<g>
						<g>
							<path fill="#333333" d="M1151.6,552.2V110.6c0-10.1-9.6-18.2-21.4-18.2H313.5c-11.8,0-21.4,8.1-21.4,18.2v441.6H1151.6z"/>
							<path fill="#545454" d="M1151.6,553.1H292.1c-0.6,0-1.1-0.4-1.1-1V110.6c0-10.6,10.1-19.1,22.5-19.1h816.7
								c12.4,0,22.5,8.6,22.5,19.1v441.6C1152.7,552.7,1152.2,553.1,1151.6,553.1z M293.2,551.2h857.2V110.6
								c0-9.5-9.1-17.2-20.3-17.2H313.5c-11.2,0-20.3,7.7-20.3,17.2V551.2z"/>
						</g>
						<path fill="rgba(0, 0, 0, 0.5)" d="M864.7,681.9H578.9c-7.2,0-13.1,5.9-13.1,13.1v4.9h312.1V695C877.9,687.8,872,681.9,864.7,681.9z"/>
						<path fill="rgba(0, 0, 0, 0.5)" d="M292.1,552.2v52.2c0,10,9.6,18.2,21.4,18.2h816.7c11.8,0,21.4-8.1,21.4-18.2v-52.2H292.1z"/>
						<rect x="327.3" y="120.8" fill="#EC8558" width="789.1" height="401.2"/>
						<path fill="#DCE4E7" d="M848.5,681.9c-5.7-19.8-11.4-39.6-17.1-59.5H612.3c-5.7,19.8-11.4,39.6-17.1,59.5H848.5z"/>
						<path fill="#CDD5D8" d="M595.1,681.9h116.2l70-59.5H612.3C606.6,642.3,600.8,662.1,595.1,681.9z"/>
					</g>
				</g>
			</g>
		</g>
		<path fill="#70A5C5" d="M907.7,111.8c0,19.6,15.3,35.5,34.1,35.5h19.9v39l51.7-39h205.7c18.8,0,34.1-15.9,34.1-35.5V39.6
			c0-19.6-15.3-35.5-34.1-35.5H941.8C923,4,907.7,20,907.7,39.6V111.8z"/>
		<path fill="#70A5C5" d="M530,355.3c0,19.6-18.7,35.5-41.8,35.5h-24.4v39l-63.5-39H147.8c-23.1,0-41.8-15.9-41.8-35.5v-72.3
			c0-19.6,18.7-35.5,41.8-35.5h340.4c23.1,0,41.8,15.9,41.8,35.5V355.3z"/>
		<path fill="#70A5C5" d="M546.2,176c5.9,22.3,26.2,40.9,45.4,41.7c6.8,0.2,13.7,0.4,20.5,0.7c2.2,15.9,4.3,31.7,6.5,47.6
			c14.1-14.3,29.8-29.5,46.9-45.5c40.9,1.8,81.9,4.2,122.7,7c19.1,1.5,39.5-21,45.7-50.4c7.2-35.9,14.4-71.8,21.6-107.7
			c6.2-29.4-9.9-51.6-35.8-49.3c-86.4,7.1-172.6,16-258.4,26.5c-25.7,3.3-41.7,24.2-35.8,46.6C532.4,120.7,539.3,148.3,546.2,176z"
			/>
		<path fill="#70A5C5" d="M616.9,460.5c5.3-19.3,24.4-36.1,42.6-37.3c6.5-0.4,13-0.8,19.5-1.1c1.9-13.6,3.9-27.3,5.8-40.9
			c13.6,11.9,28.6,24.7,45,38.3c39-1.8,78.1-3.1,117.1-3.9c18.3-0.5,37.2,19.7,42.3,45.1c5.9,31,11.9,62,17.8,93
			c5.1,25.4-10.2,43.5-34.1,40.5c-79.9-9.5-160.2-17.4-240.7-23.7c-24.1-2-39.3-19.1-34-38.4C604.5,508.2,610.7,484.3,616.9,460.5z"
			/>
		<g>
			<path fill="rgba(0, 0, 0, 0.5)" d="M1019.3,99.8h-11.7V76.7h-29.2v23.1h-11.7V46.9h11.7v22.7h29.2V46.9h11.7V99.8z"/>
			<path fill="rgba(0, 0, 0, 0.5)" d="M1075.7,46.9V55H1057v44.8h-11.6V55h-18.8v-8.1H1075.7z"/>
			<path fill="rgba(0, 0, 0, 0.5)" d="M1115.7,80.3c0.4,0.8,0.8,1.7,1.2,2.5c0.4-0.9,0.8-1.7,1.2-2.6c0.4-0.9,0.9-1.7,1.4-2.4l18.4-29.3
				c0.2-0.4,0.5-0.7,0.7-0.9c0.2-0.2,0.5-0.4,0.8-0.5c0.3-0.1,0.6-0.2,1-0.2c0.4,0,0.8,0,1.3,0h8.7v52.9h-10.2V65.6
				c0-0.6,0-1.3,0.1-2.1c0-0.8,0.1-1.5,0.2-2.3l-18.8,30c-0.4,0.7-1,1.2-1.7,1.6c-0.7,0.4-1.5,0.6-2.4,0.6h-1.6
				c-0.9,0-1.7-0.2-2.4-0.6c-0.7-0.4-1.2-0.9-1.7-1.6L1093,61.1c0.1,0.8,0.2,1.6,0.2,2.4c0,0.8,0.1,1.5,0.1,2.1v34.2h-10.2V46.9h8.7
				c0.5,0,1,0,1.3,0c0.4,0,0.7,0.1,1,0.2c0.3,0.1,0.6,0.3,0.8,0.5c0.3,0.2,0.5,0.5,0.7,0.9l18.6,29.4
				C1114.8,78.6,1115.3,79.4,1115.7,80.3z"/>
			<path fill="rgba(0, 0, 0, 0.5)" d="M1174.7,91.7h24.9v8.1h-36.5V46.9h11.6V91.7z"/>
		</g>
		<g>
			<path fill="rgba(0, 0, 0, 0.5)" d="M697.6,510.8v12.4c0,14.9-8.8,23.4-25.7,23.4c-16.9,0-25.7-8.5-25.7-23.4v-48.4
				c0-14.9,8.8-23.4,25.7-23.4c16.9,0,25.7,8.5,25.7,23.4v9h-16.3v-10c0-6.6-3.4-9.2-8.9-9.2c-5.5,0-8.9,2.5-8.9,9.2v50.2
				c0,6.6,3.4,9,8.9,9c5.5,0,8.9-2.4,8.9-9v-13.3H697.6z"/>
			<path fill="rgba(0, 0, 0, 0.5)" d="M744.5,518.5l11.7-66h23.9v93h-16.3v-66.7L752,545.5h-16.3l-12.8-65.8v65.8h-15v-93h23.9L744.5,518.5z"/>
			<path fill="rgba(0, 0, 0, 0.5)" d="M815.9,451.4c16.7,0,25.3,8.5,25.3,23.4v2.9h-16.3v-3.9c0-6.6-3.1-9.2-8.6-9.2c-5.5,0-8.6,2.5-8.6,9.2
				c0,19.1,33.6,22.7,33.6,49.3c0,14.9-8.8,23.4-25.7,23.4c-16.9,0-25.7-8.5-25.7-23.4v-5.7h16.3v6.6c0,6.6,3.4,9,8.9,9
				c5.5,0,8.9-2.4,8.9-9c0-19.1-33.6-22.7-33.6-49.3C790.5,459.9,799.1,451.4,815.9,451.4z"/>
		</g>
		<g>
			<path fill="rgba(0, 0, 0, 0.5)" d="M169.9,327.1c0,1.9-0.3,3.6-0.8,5.1c-0.5,1.5-1.4,2.8-2.5,3.9c-1.1,1.1-2.4,1.9-4.1,2.5
				c-1.6,0.6-3.5,0.9-5.7,0.9c-1,0-2-0.1-2.9-0.2c-1-0.1-1.9-0.3-3-0.5l0.4-3.7c0-0.3,0.2-0.6,0.5-0.8c0.3-0.2,0.7-0.3,1.2-0.3
				c0.3,0,0.7,0.1,1.2,0.2c0.5,0.1,1.1,0.2,1.9,0.2c1,0,2-0.1,2.8-0.4c0.8-0.3,1.5-0.7,2-1.2c0.5-0.6,0.9-1.3,1.2-2.2
				c0.3-0.9,0.4-2,0.4-3.2v-21.9h7.4V327.1z"/>
			<path fill="rgba(0, 0, 0, 0.5)" d="M211.3,339.1h-5.7c-0.6,0-1.2-0.1-1.6-0.4c-0.4-0.3-0.7-0.6-0.9-1l-3-6.9h-16.4l-3,6.9
				c-0.1,0.4-0.4,0.7-0.9,1c-0.4,0.3-1,0.4-1.6,0.4h-5.7l15.6-33.7h7.5L211.3,339.1z M185.6,326.4h12.6l-4.8-11.2
				c-0.2-0.5-0.5-1.1-0.7-1.8c-0.3-0.7-0.5-1.4-0.8-2.2c-0.3,0.8-0.5,1.5-0.8,2.2c-0.2,0.7-0.5,1.3-0.7,1.8L185.6,326.4z"/>
			<path fill="rgba(0, 0, 0, 0.5)" d="M206.9,305.4h6c0.6,0,1.2,0.1,1.6,0.4c0.4,0.3,0.7,0.6,0.9,1l9.3,20.5c0.3,0.7,0.6,1.4,0.9,2.2
				c0.3,0.8,0.6,1.6,0.8,2.5c0.4-1.8,0.9-3.4,1.6-4.7l9.3-20.5c0.2-0.4,0.5-0.7,0.9-1c0.4-0.3,0.9-0.4,1.6-0.4h6l-16,33.7h-6.7
				L206.9,305.4z"/>
			<path fill="rgba(0, 0, 0, 0.5)" d="M279.9,339.1h-5.7c-0.6,0-1.2-0.1-1.6-0.4c-0.4-0.3-0.7-0.6-0.9-1l-3-6.9h-16.4l-3,6.9
				c-0.1,0.4-0.4,0.7-0.9,1c-0.4,0.3-1,0.4-1.6,0.4h-5.7l15.6-33.7h7.5L279.9,339.1z M254.3,326.4h12.6l-4.8-11.2
				c-0.2-0.5-0.5-1.1-0.7-1.8c-0.3-0.7-0.5-1.4-0.8-2.2c-0.3,0.8-0.5,1.5-0.8,2.2c-0.2,0.7-0.5,1.3-0.7,1.8L254.3,326.4z"/>
			<path fill="rgba(0, 0, 0, 0.5)" d="M315.9,311.6c-0.2,0.3-0.4,0.6-0.7,0.7c-0.3,0.1-0.6,0.2-0.9,0.2c-0.4,0-0.8-0.1-1.2-0.4
				c-0.5-0.2-1-0.5-1.6-0.8c-0.6-0.3-1.3-0.6-2.2-0.8c-0.8-0.2-1.8-0.4-2.9-0.4c-1,0-1.9,0.1-2.7,0.3c-0.8,0.2-1.4,0.5-1.9,0.9
				c-0.5,0.4-0.9,0.8-1.2,1.3c-0.3,0.5-0.4,1.1-0.4,1.7c0,0.8,0.3,1.5,0.8,2c0.5,0.5,1.2,1,2.1,1.4c0.9,0.4,1.8,0.7,2.9,1
				c1.1,0.3,2.2,0.6,3.4,0.9c1.1,0.3,2.3,0.7,3.4,1.2c1.1,0.4,2.1,1,2.9,1.7c0.9,0.7,1.5,1.5,2.1,2.5c0.5,1,0.8,2.2,0.8,3.6
				c0,1.5-0.3,2.9-0.9,4.3c-0.6,1.3-1.5,2.5-2.7,3.5c-1.2,1-2.6,1.8-4.3,2.3c-1.7,0.6-3.6,0.8-5.8,0.8c-1.3,0-2.5-0.1-3.7-0.3
				c-1.2-0.2-2.4-0.5-3.5-0.9c-1.1-0.4-2.2-0.9-3.2-1.4c-1-0.5-1.9-1.2-2.6-1.8l2.1-3c0.2-0.2,0.4-0.4,0.7-0.5
				c0.3-0.1,0.6-0.2,0.9-0.2c0.5,0,0.9,0.2,1.5,0.5c0.5,0.3,1.2,0.7,1.9,1.1c0.7,0.4,1.6,0.7,2.5,1.1c1,0.3,2.2,0.5,3.5,0.5
				c2.1,0,3.7-0.4,4.9-1.3c1.2-0.8,1.7-2.1,1.7-3.6c0-0.9-0.3-1.6-0.8-2.2c-0.5-0.6-1.2-1-2.1-1.4c-0.9-0.4-1.8-0.7-2.9-1
				c-1.1-0.3-2.2-0.5-3.3-0.9c-1.1-0.3-2.2-0.7-3.3-1.1c-1.1-0.4-2.1-1-2.9-1.7c-0.9-0.7-1.5-1.6-2.1-2.6c-0.5-1-0.8-2.3-0.8-3.9
				c0-1.2,0.3-2.4,0.9-3.6c0.6-1.2,1.4-2.2,2.5-3.1c1.1-0.9,2.5-1.6,4.1-2.2c1.6-0.5,3.4-0.8,5.5-0.8c2.3,0,4.5,0.3,6.5,0.9
				c2,0.6,3.7,1.5,5,2.6L315.9,311.6z"/>
			<path fill="rgba(0, 0, 0, 0.5)" d="M351.3,331.2c0.4,0,0.8,0.1,1,0.4l2.9,2.7c-1.6,1.7-3.6,3-5.9,3.9s-5.2,1.4-8.5,1.4
				c-2.9,0-5.6-0.4-7.9-1.3c-2.3-0.9-4.4-2-6-3.6c-1.7-1.5-2.9-3.3-3.8-5.5c-0.9-2.1-1.3-4.4-1.3-6.9c0-2.5,0.5-4.8,1.5-7
				c1-2.1,2.4-3.9,4.2-5.4s3.9-2.7,6.4-3.6c2.5-0.8,5.3-1.3,8.3-1.3c2.9,0,5.5,0.4,7.7,1.2c2.2,0.8,4.1,1.9,5.7,3.2l-2.5,2.9
				c-0.1,0.2-0.3,0.4-0.6,0.5c-0.2,0.1-0.5,0.2-0.9,0.2c-0.4,0-0.9-0.1-1.3-0.4c-0.4-0.3-1-0.6-1.7-0.9c-0.7-0.3-1.5-0.6-2.6-0.9
				c-1-0.3-2.3-0.4-3.9-0.4c-1.9,0-3.6,0.3-5.1,0.8c-1.6,0.6-2.9,1.3-4,2.4c-1.1,1-2,2.3-2.6,3.7c-0.6,1.5-0.9,3.1-0.9,4.9
				c0,1.9,0.3,3.6,0.9,5.1c0.6,1.5,1.5,2.7,2.6,3.7c1.1,1,2.3,1.8,3.8,2.3c1.5,0.5,3,0.8,4.7,0.8c1,0,1.9,0,2.7-0.1
				c0.8-0.1,1.6-0.2,2.2-0.4c0.7-0.2,1.3-0.5,1.9-0.8c0.6-0.3,1.2-0.7,1.8-1.2c0.2-0.1,0.4-0.3,0.6-0.3
				C350.8,331.2,351.1,331.2,351.3,331.2z"/>
			<path fill="rgba(0, 0, 0, 0.5)" d="M368.4,325.9v13.2h-7.4v-33.7h12.1c2.7,0,5,0.2,7,0.7c1.9,0.5,3.5,1.1,4.7,2c1.2,0.9,2.1,1.9,2.7,3.1
				c0.6,1.2,0.9,2.5,0.9,3.9c0,1.1-0.2,2.2-0.6,3.2c-0.4,1-1,1.9-1.7,2.7c-0.7,0.8-1.7,1.5-2.7,2.2c-1.1,0.6-2.3,1.1-3.7,1.5
				c0.9,0.5,1.7,1.1,2.4,1.9l9.9,12.4h-6.6c-0.6,0-1.2-0.1-1.6-0.3c-0.4-0.2-0.8-0.5-1.1-0.9l-8.3-10.8c-0.3-0.4-0.7-0.7-1-0.9
				c-0.4-0.2-0.9-0.3-1.7-0.3H368.4z M368.4,321.5h4.6c1.4,0,2.6-0.1,3.6-0.4c1-0.3,1.9-0.7,2.5-1.2c0.7-0.5,1.2-1.1,1.5-1.9
				c0.3-0.7,0.5-1.5,0.5-2.4c0-1.7-0.7-3-2-3.9c-1.3-0.9-3.3-1.4-6.1-1.4h-4.7V321.5z"/>
			<path fill="rgba(0, 0, 0, 0.5)" d="M405.1,339.1h-7.4v-33.7h7.4V339.1z"/>
			<path fill="rgba(0, 0, 0, 0.5)" d="M421.6,327.3v11.9h-7.4v-33.7h12.9c2.6,0,4.9,0.3,6.9,0.8c1.9,0.5,3.5,1.3,4.8,2.2c1.3,1,2.2,2.1,2.8,3.4
				c0.6,1.3,0.9,2.8,0.9,4.3c0,1.6-0.3,3.1-1,4.5c-0.6,1.4-1.6,2.5-2.9,3.5c-1.3,1-2.9,1.7-4.8,2.3c-1.9,0.5-4.2,0.8-6.7,0.8H421.6z
				 M421.6,322.4h5.5c1.4,0,2.5-0.1,3.5-0.4c1-0.3,1.8-0.7,2.5-1.2c0.7-0.5,1.2-1.2,1.5-2c0.3-0.8,0.5-1.6,0.5-2.6
				c0-0.9-0.2-1.7-0.5-2.4c-0.3-0.7-0.8-1.4-1.5-1.9c-0.7-0.5-1.5-0.9-2.5-1.2c-1-0.3-2.2-0.4-3.5-0.4h-5.5V322.4z"/>
			<path fill="rgba(0, 0, 0, 0.5)" d="M476.2,305.4v5.1h-11.9v28.5h-7.4v-28.5h-12v-5.1H476.2z"/>
		</g>
		<g>
			<path fill="rgba(0, 0, 0, 0.5)" d="M596,129.5v24.2h-15V85h26.3c5.4,0,10.1,0.5,14,1.6c4,1.1,7.2,2.6,9.8,4.5c2.6,1.9,4.5,4.2,5.7,6.9
				c1.2,2.7,1.8,5.6,1.8,8.8c0,3.3-0.7,6.4-2,9.1c-1.3,2.8-3.3,5.2-5.9,7.1c-2.6,2-5.9,3.5-9.8,4.7c-3.9,1.1-8.5,1.7-13.8,1.7H596z
				 M596,119.5h11.3c2.8,0,5.2-0.3,7.2-0.9c2.1-0.6,3.7-1.4,5.1-2.5c1.3-1.1,2.4-2.4,3-4c0.7-1.6,1-3.3,1-5.2c0-1.8-0.3-3.5-1-5
				c-0.7-1.5-1.7-2.8-3-3.8c-1.3-1-3-1.8-5.1-2.4c-2.1-0.6-4.5-0.8-7.2-0.8H596V119.5z"/>
			<path fill="rgba(0, 0, 0, 0.5)" d="M718.7,153.7h-15.2v-30h-37.9v30h-15.2V85h15.2v29.6h37.9V85h15.2V153.7z"/>
			<path fill="rgba(0, 0, 0, 0.5)" d="M750.5,129.5v24.2h-15V85h26.3c5.4,0,10.1,0.5,14,1.6c4,1.1,7.2,2.6,9.8,4.5c2.6,1.9,4.5,4.2,5.7,6.9
				c1.2,2.7,1.8,5.6,1.8,8.8c0,3.3-0.7,6.4-2,9.1c-1.3,2.8-3.3,5.2-5.9,7.1c-2.6,2-5.9,3.5-9.8,4.7c-3.9,1.1-8.5,1.7-13.8,1.7H750.5
				z M750.5,119.5h11.3c2.8,0,5.2-0.3,7.2-0.9c2.1-0.6,3.7-1.4,5.1-2.5c1.3-1.1,2.4-2.4,3-4c0.7-1.6,1-3.3,1-5.2c0-1.8-0.3-3.5-1-5
				c-0.7-1.5-1.7-2.8-3-3.8c-1.3-1-3-1.8-5.1-2.4c-2.1-0.6-4.5-0.8-7.2-0.8h-11.3V119.5z"/>
		</g>
		<path fill="#70A5C5" d="M914.1,375.8c5,19.5,22.3,35.8,38.6,36.5c5.8,0.2,132.5,6.1,167.2,8.5c16.2,1.3,33.6-18.4,38.9-44.1
			c6.2-31.4,12.3-62.8,18.5-94.2c5.3-25.7-8.4-45.1-30.4-43.1c-73.6,6.3-146.9,14-220,23.2c-21.9,2.9-35.5,21.2-30.4,40.7
			c2.2,9.1,6.6,27.3,6.6,27.3l-60.4-13.4l64.6,40.9C907.3,358.2,911.8,366.5,914.1,375.8z"/>
		<g>
			<path fill="rgba(0, 0, 0, 0.5)" d="M993.8,344.2v12.4c0,14.9-8.8,23.4-25.7,23.4c-16.9,0-25.7-8.5-25.7-23.4v-48.4
				c0-14.9,8.8-23.4,25.7-23.4c16.9,0,25.7,8.5,25.7,23.4v9h-16.3v-10c0-6.6-3.4-9.2-8.9-9.2c-5.5,0-8.9,2.5-8.9,9.2v50.2
				c0,6.6,3.4,9,8.9,9c5.5,0,8.9-2.4,8.9-9v-13.3H993.8z"/>
			<path fill="rgba(0, 0, 0, 0.5)" d="M1035.1,327.2h21v10.4h-21v18.2h-12.2v-18.2h-21v-10.4h21v-17.9h12.2V327.2z"/>
			<path fill="rgba(0, 0, 0, 0.5)" d="M1097.1,327.2h21v10.4h-21v18.2h-12.2v-18.2h-21v-10.4h21v-17.9h12.2V327.2z"/>
		</g>
		<path fill="#DCE4E7" d="M395.2,120.7c0-24.9-23.8-45.1-53.2-45.1c-6.3,0-12.3,1-17.9,2.7c-6.5-23.3-31-40.6-60.4-40.6
			c-33.8,0-61.3,23-62,51.6c-3-0.5-6.1-0.8-9.3-0.8c-25.2,0-45.6,17.3-45.6,38.7c0,17.5,13.7,32.2,32.4,37c3.8,1.1,7.8,1.7,12,1.7
			h153.4c4.7,0,9.2-0.8,13.3-2.1C379.6,158,395.2,140.9,395.2,120.7z"/>
		<path fill="#70A5C5" d="M429.6,93c0-17.8-17-32.3-38-32.3c-4.5,0-8.8,0.7-12.8,1.9c-4.6-16.7-22.2-29.1-43.2-29.1
			c-24.2,0-43.9,16.5-44.4,36.9c-2.1-0.4-4.4-0.6-6.6-0.6c-18,0-32.6,12.4-32.6,27.7c0,12.5,9.8,23.1,23.2,26.5
			c2.7,0.8,5.6,1.2,8.6,1.2h109.7c3.3,0,6.6-0.5,9.5-1.5C418.4,119.7,429.6,107.5,429.6,93z"/>
	</g>
</g>
</svg>
