<?xml version="1.0" encoding="utf-8"?>
<!-- Generator: Adobe Illustrator 18.1.1, SVG Export Plug-In . SVG Version: 6.00 Build 0)  -->
<svg version="1.1" id="Layer_1" xmlns="http://www.w3.org/2000/svg" xmlns:xlink="http://www.w3.org/1999/xlink" x="0px" y="0px"
	 viewBox="0 0 142.1 142.1" enable-background="new 0 0 142.1 142.1" xml:space="preserve">
<circle fill="#A7DAE9" cx="71" cy="71" r="71"/>
<path fill="#90C4D6" d="M108,43.7L108,43.7c-0.2-0.1-0.3-0.2-0.5-0.2L103,39l0,0c-0.1-0.1-0.2-0.3-0.4-0.4l-4.3-2.5
	c-0.6-0.3-1.4-0.1-1.7,0.5l-1.1,1.9l-3.8-3.8c0,0,0,0-0.1-0.1l0,0l0,0c-0.2-0.2-0.5-0.3-0.8-0.3H88h-2.3c-0.7,0-1.3,0.6-1.3,1.3v2.7
	c-4.6-2.1-9.8-3.3-15.2-3.3c-18.7,0-34.2,14-36.7,32c0,0,0,0.1,0,0.1c-0.1,0.5-0.1,1-0.2,1.4c0,0.2,0,0.5-0.1,0.7
	c0,0.3-0.1,0.7-0.1,1c0,0.6,0,1.2,0,1.8c0,0.6,0,1.2,0,1.8c0,0.3,0,0.7,0.1,1c0,0.2,0,0.5,0.1,0.7c0,0.5,0.1,1,0.2,1.4
	c0,0.1,0,0.1,0,0.2c1.2,8.9,5.6,16.9,12,22.6l-0.1,0.1l40.9,40.9c30.3-6.2,53.5-31.7,56.3-63.1L108,43.7z"/>
<g>
	<g>
		<path fill="#1895A4" d="M106.2,74.8c0-0.4,0.1-0.7,0.1-1.1c0-0.6,0-1.2,0-1.7c0-0.6,0-1.2,0-1.7c0-0.4,0-0.7-0.1-1.1
			c0-0.2,0-0.4,0-0.6c-1.7-18.8-17.6-33.6-36.9-33.6c-18.7,0-34.2,14-36.7,32c0,0,0,0.1,0,0.1c-0.1,0.5-0.1,1-0.2,1.4
			c0,0.2,0,0.5-0.1,0.7c0,0.3-0.1,0.7-0.1,1c0,0.6,0,1.2,0,1.8c0,0.6,0,1.2,0,1.8c0,0.3,0,0.7,0.1,1c0,0.2,0,0.5,0.1,0.7
			c0,0.5,0.1,1,0.2,1.4c0,0.1,0,0.1,0,0.2c2.4,18.1,18,32,36.7,32c19.3,0,35.1-14.8,36.9-33.6C106.2,75.2,106.2,75,106.2,74.8z"/>
		<path fill="#19B0BF" d="M69.3,34.9c-18.7,0-34.2,14-36.7,32c0,0,0,0.1,0,0.1c-0.1,0.5-0.1,1-0.2,1.4c0,0.2,0,0.5-0.1,0.7
			c0,0.3-0.1,0.7-0.1,1c0,0.6,0,1.2,0,1.8c0,0.6,0,1.2,0,1.8c0,0.3,0,0.7,0.1,1c0,0.2,0,0.5,0.1,0.7c0,0.5,0.1,1,0.2,1.4
			c0,0.1,0,0.1,0,0.2c2.4,18.1,18,32,36.7,32"/>
		<g>
			<path fill="#D1EBFA" d="M99.5,87.1c-0.1,0.3-0.3,0.5-0.4,0.8c-0.1,0.2-0.2,0.4-0.4,0.7c-0.1,0.2-0.3,0.5-0.4,0.7
				c-0.1,0.2-0.3,0.4-0.4,0.7c-0.1,0.2-0.3,0.5-0.5,0.7c-0.1,0.2-0.3,0.4-0.4,0.6c-0.2,0.2-0.3,0.5-0.5,0.7
				c-0.2,0.2-0.3,0.4-0.5,0.6c-0.2,0.2-0.3,0.4-0.5,0.7c-0.2,0.2-0.3,0.4-0.5,0.6c-0.2,0.2-0.4,0.4-0.5,0.6
				c-0.2,0.2-0.3,0.4-0.5,0.6c-0.2,0.2-0.4,0.4-0.6,0.6c-0.2,0.2-0.4,0.4-0.5,0.5c-0.2,0.2-0.4,0.4-0.6,0.6
				c-0.2,0.2-0.4,0.3-0.6,0.5c-0.2,0.2-0.4,0.4-0.6,0.6c-0.2,0.2-0.4,0.3-0.6,0.5c-0.2,0.2-0.4,0.4-0.7,0.5
				c-0.2,0.2-0.4,0.3-0.6,0.5c-0.2,0.2-0.5,0.3-0.7,0.5c-0.2,0.1-0.4,0.3-0.6,0.4c-0.2,0.2-0.5,0.3-0.7,0.5
				c-0.2,0.1-0.4,0.3-0.6,0.4c-0.2,0.1-0.5,0.3-0.8,0.4c-0.2,0.1-0.4,0.2-0.6,0.4c-0.3,0.1-0.5,0.3-0.8,0.4
				c-0.2,0.1-0.4,0.2-0.7,0.3c-0.3,0.1-0.5,0.2-0.8,0.4c-0.2,0.1-0.4,0.2-0.7,0.3c-0.3,0.1-0.6,0.2-0.8,0.3
				c-0.2,0.1-0.4,0.2-0.7,0.3c-0.1,0-0.1,0-0.2,0.1c4.1-4.1,7.3-10.3,9.2-17.7H100c-0.1,0.1-0.1,0.2-0.2,0.3
				C99.7,86.6,99.6,86.8,99.5,87.1z"/>
			<path fill="#D1EBFA" d="M81.4,40.4c0.3,0.1,0.6,0.2,0.8,0.3c0.2,0.1,0.4,0.2,0.7,0.3c0.3,0.1,0.5,0.2,0.8,0.4
				c0.2,0.1,0.4,0.2,0.7,0.3c0.3,0.1,0.5,0.3,0.8,0.4c0.2,0.1,0.4,0.2,0.6,0.4c0.3,0.1,0.5,0.3,0.8,0.4c0.2,0.1,0.4,0.3,0.6,0.4
				c0.2,0.2,0.5,0.3,0.7,0.5c0.2,0.1,0.4,0.3,0.6,0.4c0.2,0.2,0.5,0.3,0.7,0.5c0.2,0.1,0.4,0.3,0.6,0.5c0.2,0.2,0.4,0.3,0.7,0.5
				c0.2,0.2,0.4,0.3,0.6,0.5c0.2,0.2,0.4,0.4,0.6,0.6c0.2,0.2,0.4,0.3,0.6,0.5c0.2,0.2,0.4,0.4,0.6,0.6c0.2,0.2,0.4,0.4,0.5,0.5
				c0.2,0.2,0.4,0.4,0.6,0.6c0.2,0.2,0.3,0.4,0.5,0.6c0.2,0.2,0.4,0.4,0.5,0.6c0.2,0.2,0.3,0.4,0.5,0.6c0.2,0.2,0.3,0.4,0.5,0.7
				c0.2,0.2,0.3,0.4,0.5,0.6c0.2,0.2,0.3,0.5,0.5,0.7c0.1,0.2,0.3,0.4,0.4,0.6c0.2,0.2,0.3,0.5,0.5,0.7c0.1,0.2,0.3,0.4,0.4,0.7
				c0.1,0.2,0.3,0.5,0.4,0.7c0.1,0.2,0.3,0.4,0.4,0.7c0.1,0.2,0.3,0.5,0.4,0.8c0.1,0.2,0.2,0.5,0.3,0.7c0.1,0.1,0.1,0.2,0.1,0.3
				H89.7c-1.8-7.4-5.1-13.6-9.2-17.7c0.1,0,0.1,0,0.2,0.1C80.9,40.2,81.2,40.3,81.4,40.4z"/>
			<path fill="#D1EBFA" d="M88.1,71.9c0,3.8-0.4,7.4-1,10.8H70.9V61.1h16.2C87.8,64.5,88.1,68.1,88.1,71.9z"/>
			<path fill="#D1EBFA" d="M86.4,86c-2.8,10.8-8.6,18.5-15.5,19.5V86H86.4z"/>
			<path fill="#D1EBFA" d="M70.9,57.8V38.3c6.9,1.1,12.7,8.8,15.5,19.5H70.9z"/>
			<path fill="#D1EBFA" d="M103,73.5c0,0.3,0,0.5,0,0.8c0,0.2,0,0.4,0,0.6c0,0.4-0.1,0.8-0.1,1.1c0,0,0,0,0,0
				c-0.3,2.3-0.8,4.5-1.6,6.7H90.4c0.6-3.4,1-7.1,1-10.8c0-3.8-0.3-7.4-1-10.9h10.8c0.8,2.2,1.3,4.4,1.6,6.7c0,0,0,0.1,0,0.1
				c0,0.4,0.1,0.7,0.1,1.1c0,0.2,0,0.4,0,0.7c0,0.3,0,0.5,0,0.8c0,0.5,0,1,0,1.5C103.1,72.5,103,73,103,73.5z"/>
		</g>
		<g>
			<path fill="#FFFFFF" d="M35.8,76.2c0-0.1,0-0.1,0-0.2c0-0.3-0.1-0.7-0.1-1c0-0.2,0-0.5-0.1-0.7c0-0.2,0-0.5,0-0.7
				c0-0.5,0-1,0-1.5c0-0.5,0-1,0-1.5c0-0.2,0-0.5,0-0.7c0-0.2,0-0.5,0.1-0.7c0-0.3,0.1-0.7,0.1-1c0-0.1,0-0.1,0-0.2
				c0.3-2.2,0.8-4.4,1.5-6.6h10.8c-0.6,3.4-1,7.1-1,10.9c0,3.8,0.3,7.4,1,10.8H37.3C36.6,80.6,36.1,78.4,35.8,76.2z"/>
			<path fill="#FFFFFF" d="M50.4,71.9c0-3.8,0.4-7.4,1-10.9h16.2v21.7H51.4C50.8,79.4,50.4,75.7,50.4,71.9z"/>
			<path fill="#FFFFFF" d="M67.7,38.3v19.5H52.2C54.9,47.1,60.8,39.4,67.7,38.3z"/>
			<path fill="#FFFFFF" d="M67.7,86v19.5c-6.9-1.1-12.7-8.8-15.5-19.5H67.7z"/>
			<path fill="#FFFFFF" d="M58,40.1c-4.1,4.1-7.3,10.3-9.2,17.7H38.6C42.4,49.6,49.4,43.2,58,40.1z"/>
			<path fill="#FFFFFF" d="M38.6,86h10.2c1.8,7.4,5.1,13.7,9.2,17.7C49.4,100.7,42.4,94.3,38.6,86z"/>
		</g>
	</g>
</g>
<g>
	<g>
		<path fill="#0F303F" d="M111.5,54.5h-3c-0.2-1.1-0.5-2.1-0.9-3.1l2.5-1.4c0.6-0.3,0.8-1.1,0.5-1.7l-2.5-4.3
			c-0.3-0.6-1.1-0.8-1.7-0.5l-2.6,1.5c-0.7-0.8-1.5-1.5-2.3-2.2l1.4-2.5c0.3-0.6,0.1-1.4-0.5-1.7l-4.3-2.5c-0.6-0.3-1.4-0.1-1.7,0.5
			L95,39.2c-1-0.3-2-0.6-3.1-0.8v-2.9c0-0.7-0.6-1.3-1.2-1.3h-5c-0.7,0-1.3,0.6-1.3,1.3v3c-1,0.2-2.1,0.5-3.1,0.9L80,36.9
			c-0.3-0.6-1.1-0.8-1.7-0.5l-4.3,2.5c-0.6,0.3-0.8,1.1-0.5,1.7l1.5,2.6c-0.8,0.7-1.5,1.5-2.2,2.3L70.3,44c-0.6-0.3-1.4-0.1-1.7,0.5
			L66,48.8c-0.3,0.6-0.1,1.4,0.5,1.7l2.6,1.5c-0.3,1-0.6,2-0.8,3.1h-2.9c-0.7,0-1.3,0.6-1.3,1.3v5c0,0.7,0.6,1.2,1.3,1.2h3
			c0.2,1.1,0.5,2.1,0.9,3.1l-2.5,1.4c-0.6,0.3-0.8,1.1-0.5,1.7l2.5,4.3c0.3,0.6,1.1,0.8,1.7,0.5l2.6-1.5c0.7,0.8,1.5,1.5,2.3,2.2
			L74,76.8c-0.3,0.6-0.1,1.4,0.5,1.7l4.3,2.5c0.6,0.3,1.4,0.1,1.7-0.5l1.5-2.6c1,0.3,2,0.6,3.1,0.8v2.9c0,0.7,0.6,1.2,1.2,1.2l5,0
			c0.7,0,1.2-0.6,1.2-1.3v-3c1-0.2,2.1-0.5,3.1-0.9l1.4,2.5c0.3,0.6,1.1,0.8,1.7,0.5l4.3-2.5c0.6-0.3,0.8-1.1,0.5-1.7l-1.5-2.6
			c0.8-0.7,1.5-1.5,2.2-2.3l2.5,1.4c0.6,0.3,1.4,0.1,1.7-0.5l2.5-4.3c0.3-0.6,0.1-1.4-0.5-1.7l-2.6-1.5c0.3-1,0.6-2,0.8-3.1h2.9
			c0.7,0,1.2-0.6,1.2-1.3v-5C112.8,55.1,112.2,54.5,111.5,54.5z M88.5,68.5c-5.5,0-10-4.5-10-10c0-5.5,4.5-10,10-10
			c5.5,0,10,4.5,10,10C98.5,64.1,94,68.5,88.5,68.5z"/>
		<path fill="#2D5972" d="M88,71.5c-7-0.2-12.5-5.9-12.5-13c0-7,5.6-12.7,12.5-13V34.2h-2.3c-0.7,0-1.3,0.6-1.3,1.3v3
			c-1,0.2-2.1,0.5-3.1,0.9L80,36.9c-0.3-0.6-1.1-0.8-1.7-0.5l-4.3,2.5c-0.6,0.3-0.8,1.1-0.5,1.7l1.5,2.6c-0.8,0.7-1.5,1.5-2.2,2.3
			L70.3,44c-0.6-0.3-1.4-0.1-1.7,0.5L66,48.8c-0.3,0.6-0.1,1.4,0.5,1.7l2.6,1.5c-0.3,1-0.6,2-0.8,3.1h-2.9c-0.7,0-1.3,0.6-1.3,1.3v5
			c0,0.7,0.6,1.2,1.3,1.2h3c0.2,1.1,0.5,2.1,0.9,3.1l-2.5,1.4c-0.6,0.3-0.8,1.1-0.5,1.7l2.5,4.3c0.3,0.6,1.1,0.8,1.7,0.5l2.6-1.5
			c0.7,0.8,1.5,1.5,2.3,2.2L74,76.8c-0.3,0.6-0.1,1.4,0.5,1.7l4.3,2.5c0.6,0.3,1.4,0.1,1.7-0.5l1.5-2.6c1,0.3,2,0.6,3.1,0.8v2.9
			c0,0.7,0.6,1.2,1.2,1.2l1.8,0V71.5z"/>
		<path fill="#0F303F" d="M88.5,42.8c-8.7,0-15.8,7.1-15.8,15.8c0,8.7,7.1,15.8,15.8,15.8c8.7,0,15.8-7.1,15.8-15.8
			C104.3,49.8,97.2,42.8,88.5,42.8z M88.5,71.5c-7.2,0-13-5.8-13-13c0-7.2,5.8-13,13-13c7.2,0,13,5.8,13,13
			C101.5,65.7,95.6,71.5,88.5,71.5z"/>
		<path fill="#2D5972" d="M88.5,42.8c-0.1,0-0.3,0-0.4,0v2.8c0.1,0,0.3,0,0.4,0c7.2,0,13,5.8,13,13c0,7.2-5.8,13-13,13
			c-0.2,0-0.3,0-0.4,0v2.8c0.1,0,0.3,0,0.4,0c8.7,0,15.8-7.1,15.8-15.8C104.3,49.8,97.2,42.8,88.5,42.8z"/>
		<path fill="#2D5972" d="M88.5,45.3c-0.1,0-0.2,0-0.4,0v2.4c0.1,0,0.2,0,0.4,0c6,0,10.9,4.9,10.9,10.9c0,6-4.9,10.9-10.9,10.9
			c-0.1,0-0.2,0-0.4,0v2.4c0.1,0,0.2,0,0.4,0c7.3,0,13.2-5.9,13.2-13.2C101.7,51.3,95.8,45.3,88.5,45.3z"/>
	</g>
</g>
</svg>
