<?xml version="1.0" encoding="utf-8"?>
<!-- Generator: Adobe Illustrator 18.1.1, SVG Export Plug-In . SVG Version: 6.00 Build 0)  -->
<svg version="1.1" id="Layer_1" xmlns="http://www.w3.org/2000/svg" xmlns:xlink="http://www.w3.org/1999/xlink" x="0px" y="0px"
	 viewBox="0 0 142.1 142.1" enable-background="new 0 0 142.1 142.1" xml:space="preserve">
<g>
	<g>
		<g>
			<g>
				<g>
					<circle fill="#19B0BF" cx="71" cy="71" r="71"/>
				</g>
			</g>
		</g>
	</g>
</g>
<g>
	<g>
		<g>
			<g>
				<g>
					<path fill="#1895A4" d="M138.6,86.4L138.6,86.4L87,34.8v-0.1l-2.7,0l-6.4,0l-2.7,0v5.8l0,0v8.1l-10-10
						c-1.7-1.9-4.1-3.1-6.9-3.1h-2.4c-5,0-9.1,4.1-9.1,9.1v10c0,2.9,1.4,5.5,3.5,7.2l6.7,6.7v0.3L37.7,88.1c-3.1,3.1-3.1,8.1,0,11.2
						c0.1,0.1,0.1,0.1,0.2,0.2l0.1-0.1l42,42c29.4-3.7,53.2-25.4,60-53.6L138.6,86.4L138.6,86.4z"/>
				</g>
			</g>
		</g>
	</g>
</g>
<g>
	<g>
		<g>
			<path fill="#A7DAE9" d="M57.1,70.9v-2.2L37.7,88.1c-3.1,3.1-3.1,8.1,0,11.2c0.1,0.1,0.1,0.1,0.2,0.2l21.3-21.3l0-3.2
				C58,74,57.1,72.6,57.1,70.9z"/>
			<path fill="#0F303F" d="M91.8,50.1l-1.7-1.7c-0.9-0.9-2-1.6-3.1-2l0,6.2l1.2,1.2c1.5,1.5,1.5,4,0,5.6L87,60.5l0,7.3l4.8-4.8
				C95.4,59.4,95.4,53.7,91.8,50.1z"/>
			<path fill="#0F303F" d="M73.9,64.7c-1.5-1.5-1.5-4,0-5.6l1.3-1.3v-7.3l-5,5c0,0,0,0,0,0l0.2-0.2l3.1,11.4l-2.4,2.4l0.8,0.8
				c1,1,2.1,1.6,3.3,2.1V66L73.9,64.7z"/>
			<path fill="#0F303F" d="M70.4,55.4l-0.2,0.2l-2.9,2.9l0,12.5c0,0.1,0,0.2,0,0.3h0v1.7l3.7-3.7l2.4-2.4L70.4,55.4z"/>
			<path fill="#FFFFFF" d="M67.4,71.2C67.2,73.9,65,76,62.3,76c-1.2,0-2.2-0.4-3.1-1l0,3.2l0,30.2c0.1,0,0.2,0,0.3,0
				c4.4,0,7.9-3.6,7.9-7.9V72.9L67.4,71.2L67.4,71.2z"/>
			<path fill="#2D5972" d="M67.4,54.2l0-9.8c0-5-4.1-9.1-9.1-9.1h-2.4c-5,0-9.1,4.1-9.1,9.1v10c0,5,4.1,9.1,9.1,9.1l1.2,0v-3.4
				L67.4,54.2z M55.9,58.4c-2.2,0-3.9-1.8-3.9-3.9v-10c0-2.2,1.8-3.9,3.9-3.9l2.4,0c2.2,0,3.9,1.8,3.9,3.9v10c0,2.2-1.8,3.9-3.9,3.9
				L55.9,58.4z"/>
			<path fill="#2D5972" d="M59.2,75c0.9,0.6,1.9,1,3.1,1c2.7,0,4.9-2.1,5.1-4.8c0-0.1,0-0.2,0-0.3l0-12.5l0-4.2l0,0l-10.2,5.9v3.4
				v5.1v2.2C57.1,72.6,58,74,59.2,75z M62.3,68.5c1.3,0,2.4,1.1,2.4,2.4c0,1.3-1.1,2.4-2.4,2.4c-1.3,0-2.4-1.1-2.4-2.4
				C59.8,69.5,60.9,68.5,62.3,68.5z"/>
			<path fill="#90C4D6" d="M62.3,73.3c1.3,0,2.4-1.1,2.4-2.4c0-1.3-1.1-2.4-2.4-2.4c-1.3,0-2.4,1.1-2.4,2.4
				C59.8,72.2,60.9,73.3,62.3,73.3z"/>
			<path fill="#F99B1F" d="M75.2,38.3v12.3v7.3V66v6.1v29c1.4-0.2,2.5-1.3,2.7-2.7l0-60.1H75.2z"/>
			<path fill="#FDC015" d="M77.9,98.4C77.9,98.4,77.9,98.4,77.9,98.4c0.2,1.5,1.6,2.7,3.2,2.7c1.6,0,3-1.2,3.2-2.8c0,0,0,0,0,0
				c0,0,0,0,0,0l0,0l0-60.1h-6.4L77.9,98.4L77.9,98.4C77.9,98.4,77.9,98.4,77.9,98.4z"/>
			<path fill="#F99B1F" d="M87,52.6l0-6.2l0-8.1h-2.7l0,60.1c0.2,1.4,1.3,2.5,2.7,2.7c0,0,0,0,0,0l0-33.3l0-7.3L87,52.6z"/>
			<path fill="#FFFFFF" d="M84.3,98.3L84.3,98.3C84.3,98.4,84.3,98.4,84.3,98.3C84.3,98.4,84.3,98.4,84.3,98.3
				c-0.2,1.6-1.6,2.8-3.2,2.8c-1.6,0-3-1.2-3.2-2.8c0,0,0,0,0,0c0,0,0,0,0,0l0,0c-0.2,1.4-1.3,2.5-2.7,2.7l3,3.7
				c0.9-0.2,1.9-0.3,2.9-0.3c1,0,2,0.1,2.9,0.3l-2.9,3.6l5.9-7.4c0,0,0,0,0,0c0,0,0,0,0,0C85.6,100.8,84.5,99.7,84.3,98.3z"/>
			<path fill="#F99B1F" d="M81.1,104.5c-1,0-2,0.1-2.9,0.3h0l2.9,3.6l2.9-3.6C83.1,104.6,82.1,104.5,81.1,104.5z"/>
			<rect x="75.2" y="34.8" fill="#0F303F" width="2.7" height="3.5"/>
			<rect x="77.9" y="34.8" fill="#2D5972" width="6.4" height="3.5"/>
			<rect x="84.3" y="34.8" fill="#0F303F" width="2.7" height="3.5"/>
		</g>
	</g>
</g>
</svg>
