<?xml version="1.0" encoding="utf-8"?>
<!-- Generator: Adobe Illustrator 18.1.1, SVG Export Plug-In . SVG Version: 6.00 Build 0)  -->
<svg version="1.1" id="Layer_1" xmlns="http://www.w3.org/2000/svg" xmlns:xlink="http://www.w3.org/1999/xlink" x="0px" y="0px"
	 viewBox="0 0 142.1 142.1" enable-background="new 0 0 142.1 142.1" xml:space="preserve">
<circle fill="#2D5972" cx="71" cy="71" r="71"/>
<g>
	<path fill="#0F303F" d="M140,87.7L75.9,23.6l0,0c-0.6-0.6-1.5-1-2.4-1c-0.1,0-0.1,0-0.2,0l-4.2-4.2c-0.4-0.5-1-0.9-1.7-0.9
		c-1.1,0-2,0.9-2,2c0,0.7,0.4,1.3,0.9,1.7l3.9,3.9c-0.1,0.3-0.1,0.6-0.1,0.9c0,1,0.4,1.9,1.1,2.5l0,0l5.3,5.3H61.5h-0.7
		c-0.2,0-0.4,0.2-0.4,0.4v4.3c0,0.2,0.2,0.4,0.4,0.4h0.3v25.3c-10,4-17.1,13.7-17.1,25.1c0,7.8,3.3,14.9,8.6,19.8l31.6,31.6
		C111.7,135.5,133.5,114.6,140,87.7z"/>
	<g>
		<path fill="#19B0BF" d="M81,64.2V38.9h0.3c0.2,0,0.4-0.2,0.4-0.4v-4.3c0-0.2-0.2-0.4-0.4-0.4h-0.7H61.5h-0.7
			c-0.2,0-0.4,0.2-0.4,0.4v4.3c0,0.2,0.2,0.4,0.4,0.4h0.3v25.3c-10,4-17.1,13.7-17.1,25.1c0,14.9,12.1,27,27,27
			c14.9,0,27-12.1,27-27C98,77.9,91,68.2,81,64.2z"/>
		<path fill="#F99B1F" d="M94.8,89.3c0,13.1-10.7,23.8-23.8,23.8c-13.1,0-23.8-10.6-23.8-23.8c0-13.1,10.7-23.8,23.8-23.8
			C84.2,65.5,94.8,76.2,94.8,89.3z"/>
		<path fill="#FDC015" d="M71,113.1c-13.1,0-23.8-10.6-23.8-23.8c0-13.1,10.7-23.8,23.8-23.8"/>
		<path fill="#0F303F" d="M77.7,66.5V36.6c0-0.2-0.1-0.4-0.3-0.4H64.6c-0.1,0-0.3,0.2-0.3,0.4v29.9c-7.5,2.2-13.5,8-15.9,15.4h45.2
			C91.2,74.5,85.2,68.7,77.7,66.5z"/>
		<path fill="#F99B1F" d="M77.6,73.5c0,2.7-2.2,4.8-4.8,4.8c-2.7,0-4.8-2.2-4.8-4.8c0-2.7,2.2-4.8,4.8-4.8
			C75.4,68.6,77.6,70.8,77.6,73.5z"/>
		<circle fill="#F99B1F" cx="69.7" cy="52.8" r="3.4"/>
		<circle fill="#FDC015" cx="73.5" cy="26" r="3.4"/>
		<path fill="#FDC015" d="M69.5,19.6c0,1.1-0.9,2-2,2c-1.1,0-2-0.9-2-2c0-1.1,0.9-2,2-2C68.6,17.5,69.5,18.4,69.5,19.6z"/>
	</g>
</g>
</svg>
