<?xml version="1.0" encoding="utf-8"?>
<!-- Generator: Adobe Illustrator 18.1.1, SVG Export Plug-In . SVG Version: 6.00 Build 0)  -->
<svg version="1.1" id="menu_bttn_copy_1_" xmlns="http://www.w3.org/2000/svg" xmlns:xlink="http://www.w3.org/1999/xlink" x="0px"
	 y="0px" viewBox="0 0 56 66" enable-background="new 0 0 56 66" xml:space="preserve">
<g id="menu">
	<g>
		<path fill="#FFFFFF" d="M14.3,63.6c0-0.3,0-0.5,0-0.8s0.1-0.5,0.2-0.8s0.2-0.5,0.3-0.7c0.1-0.2,0.2-0.4,0.4-0.9s0.4-0.8,0.6-1.3
			s0.4-0.9,0.6-1.3s0.3-0.7,0.4-0.8v-0.5c-0.2-0.1-0.5,0-1,0.3s-1,0.7-1.7,1.2s-1.3,1.1-2,1.7s-1.4,1.2-2,1.8S9,62.7,8.6,63.2
			S7.8,63.9,7.7,64c-0.3,0.1-0.6,0-0.7-0.2s-0.1-0.6-0.1-1.1s0.1-1,0.3-1.5s0.3-1.1,0.4-1.6s0.3-0.9,0.4-1.3s0.2-0.6,0.2-0.6
			c-0.3-0.1-0.6-0.1-1,0.1s-0.7,0.5-1.1,0.8s-0.7,0.8-1.1,1.3s-0.7,1-1.1,1.5s-0.7,1-1,1.4S2.3,63.6,2,63.9s-0.6,0.4-0.8,0.5
			S0.7,64.3,0.5,64c0,0,0-0.1,0-0.1s0-0.1,0-0.1c0.1-0.2,0.2-0.4,0.4-0.7s0.3-0.7,0.6-1.1s0.4-0.9,0.7-1.3s0.5-0.9,0.7-1.3
			s0.4-0.8,0.6-1.1s0.3-0.6,0.4-0.7c0.1-0.2,0.2-0.4,0.3-0.6s0.3-0.5,0.4-0.7s0.3-0.5,0.5-0.8h0.6c0.1,0.4,0.1,0.7,0,1
			S5.2,56.9,5,57.2s-0.4,0.6-0.5,0.9s-0.1,0.6,0,0.9c1.3-1.2,2.4-2.1,3.1-2.6s1.2-0.9,1.5-1s0.4,0,0.4,0.4s-0.1,0.7-0.2,1.3
			S9.2,58.2,9,58.9s-0.1,1.3,0,2h0.3c0.1-0.1,0.2-0.2,0.5-0.4s0.5-0.4,0.7-0.6s0.5-0.4,0.7-0.6s0.4-0.3,0.5-0.4
			c0.2-0.1,0.4-0.3,0.8-0.6s0.7-0.5,1-0.8s0.6-0.5,0.9-0.7s0.4-0.3,0.5-0.4c0.1,0,0.2-0.1,0.4-0.3s0.4-0.3,0.7-0.5s0.5-0.3,0.7-0.5
			s0.4-0.3,0.5-0.3c0.2-0.2,0.5-0.2,0.7-0.2s0.4,0.1,0.5,0.2s0.2,0.3,0.2,0.5s0,0.5-0.1,0.8c-0.4,0.7-0.7,1.4-1.1,2.1s-0.7,1.3-1,2
			s-0.6,1.4-0.8,2.1s-0.3,1.5-0.3,2.3c-0.1,0-0.2,0-0.2,0s-0.2-0.1-0.2-0.2s-0.2-0.2-0.3-0.4C14.4,64.1,14.3,63.9,14.3,63.6z"/>
		<path fill="#FFFFFF" d="M21.3,64.6c-0.5-0.2-0.8-0.4-1.1-0.7s-0.4-0.7-0.5-1.1s-0.1-0.8,0-1.2s0.1-0.8,0.3-1.2
			c0.5-0.5,1-1.1,1.6-1.7s1.2-1.3,1.9-1.9s1.3-1.2,2.1-1.7s1.4-0.9,2.2-1.2c0.2-0.1,0.4-0.1,0.6,0s0.3,0.3,0.3,0.6s0.1,0.5,0.1,0.9
			s0,0.6-0.1,1s-0.1,0.6-0.2,0.8s-0.2,0.4-0.2,0.5c-0.2,0.2-0.6,0.5-1.1,0.8s-1.1,0.6-1.8,1s-1.3,0.7-2,1.1s-1.2,0.7-1.6,1.1
			S21,62.2,21,62.5s0.1,0.7,0.7,1c0.5,0.1,1.2,0,1.9-0.1s1.5-0.3,2.3-0.5s1.6-0.4,2.3-0.6s1.3-0.4,1.8-0.5l0.3,0.3
			c-0.3,0.5-0.9,0.9-1.7,1.2S26.9,64,26,64.3s-1.8,0.4-2.6,0.5S21.8,64.8,21.3,64.6z M26.9,55.6c0,0-0.1,0.1-0.4,0.2
			s-0.5,0.3-0.8,0.6s-0.7,0.5-1,0.8s-0.7,0.6-1,0.8s-0.6,0.5-0.8,0.6s-0.3,0.3-0.3,0.3c0.2,0,0.6,0,1-0.1s0.8-0.3,1.2-0.5
			s0.8-0.5,1.2-0.7s0.7-0.5,0.9-0.8s0.3-0.5,0.4-0.7S27.3,55.7,26.9,55.6z"/>
		<path fill="#FFFFFF" d="M38.7,64.6c0-0.5,0-1,0.1-1.5s0.3-1,0.5-1.5s0.5-1,0.7-1.5s0.5-1,0.7-1.5s0.3-0.9,0.4-1.4s0-0.9-0.1-1.4
			c-0.4-0.1-0.8-0.1-1.3,0.1s-1,0.5-1.6,0.9s-1.1,0.9-1.7,1.5s-1.2,1.1-1.8,1.7s-1.1,1.1-1.6,1.6s-1,0.9-1.4,1.3s-0.8,0.5-1,0.6
			s-0.5,0-0.6-0.3c0,0,0.1-0.2,0.3-0.6s0.4-0.9,0.7-1.4s0.6-1.2,1-1.9s0.7-1.3,1-1.9s0.6-1.1,0.8-1.5s0.4-0.6,0.4-0.7
			c0.3,0.2,0.5,0.5,0.5,0.7s0,0.5-0.1,0.8s-0.2,0.6-0.3,0.8s-0.1,0.6-0.1,0.8c0.2-0.2,0.6-0.4,1-0.7s0.9-0.6,1.5-0.9s1.1-0.6,1.6-1
			s1.1-0.6,1.6-0.7s0.9-0.3,1.3-0.3s0.7,0.1,0.9,0.4s0.2,0.7,0.2,1.2s-0.3,1.3-0.7,2.3c0,0.1-0.2,0.4-0.3,0.8s-0.4,0.9-0.6,1.3
			s-0.4,0.9-0.6,1.3s-0.3,0.7-0.3,0.8c0,0.1,0,0.2-0.1,0.3s-0.1,0.3-0.1,0.5s-0.1,0.4-0.1,0.6s-0.1,0.3-0.2,0.4s-0.2,0.1-0.3,0
			S38.7,64.6,38.7,64.6z"/>
		<path fill="#FFFFFF" d="M53.1,64.6c-0.4-0.2-0.8-0.4-1-0.7s-0.4-0.6-0.6-1s-0.2-0.7-0.3-1.1S51,61,51,60.6c-0.1-0.1-0.4,0-0.8,0.3
			s-0.8,0.6-1.2,1s-1,0.8-1.5,1.3s-1.1,0.7-1.6,0.9s-1,0.2-1.4,0.1s-0.7-0.5-1-1.2c-0.1-0.2-0.1-0.6,0.1-1s0.3-0.9,0.6-1.5
			s0.6-1.1,0.9-1.7s0.7-1.1,1-1.6s0.6-0.9,0.9-1.3s0.5-0.6,0.7-0.7c0.4,0.2,0.5,0.4,0.5,0.8s-0.2,0.8-0.4,1.2s-0.6,0.9-0.9,1.5
			s-0.7,1-1.1,1.5s-0.6,1-0.8,1.5s-0.3,0.9-0.2,1.2c0.3,0.1,0.8,0.1,1.3-0.2s1.1-0.7,1.6-1.2s1.2-1.1,1.8-1.8s1.2-1.3,1.7-1.9
			s1-1.2,1.4-1.6s0.7-0.8,0.9-0.9c0.3,0.2,0.5,0.4,0.5,0.8s-0.1,0.8-0.3,1.2s-0.4,0.9-0.7,1.5s-0.5,1-0.7,1.6s-0.3,1-0.3,1.5
			s0.1,0.9,0.4,1.2l0.8,0.9h2.4c0.1,0,0.1,0,0.1,0.1s-0.2,0.2-0.3,0.3s-0.2,0.2-0.4,0.3S55,64.8,55,64.8c-0.4,0.1-0.7,0.1-1,0
			S53.4,64.7,53.1,64.6z"/>
	</g>
</g>
<g id="Rounded_Rectangle_1">
	<g>
		<path fill="#FFFFFF" d="M48,1c2.2,0,4,1.8,4,4v31c0,2.2-1.8,4-4,4H8c-2.2,0-4-1.8-4-4V5c0-2.2,1.8-4,4-4H48 M48,0H8
			C5.2,0,3,2.2,3,5v31c0,2.8,2.2,5,5,5h40c2.8,0,5-2.2,5-5V5C53,2.2,50.8,0,48,0L48,0z"/>
	</g>
</g>
<g id="lines_1_">
	<g id="Shape_2">
		<g>
			<rect x="11" y="10" fill="#FFFFFF" width="34" height="1"/>
		</g>
		<g>
			<polygon fill="#FFFFFF" points="45,10 11,10 11,11 45,11 45,10 			"/>
		</g>
	</g>
	<g id="Shape_2_copy">
		<g>
			<rect x="11" y="20" fill="#FFFFFF" width="34" height="1"/>
		</g>
		<g>
			<polygon fill="#FFFFFF" points="45,20 11,20 11,21 45,21 45,20 			"/>
		</g>
	</g>
	<g id="Shape_2_copy_2">
		<g>
			<rect x="11" y="30" fill="#FFFFFF" width="34" height="1"/>
		</g>
		<g>
			<polygon fill="#FFFFFF" points="45,30 11,30 11,31 45,31 45,30 			"/>
		</g>
	</g>
</g>
</svg>
