<?xml version="1.0" encoding="utf-8"?>
<!-- Generator: Adobe Illustrator 18.0.0, SVG Export Plug-In . SVG Version: 6.00 Build 0)  -->
<svg version="1.1" id="Layer_1" xmlns="http://www.w3.org/2000/svg" xmlns:xlink="http://www.w3.org/1999/xlink" x="0px" y="0px"
	 viewBox="0 0 102.2 84" style="enable-background:new 0 0 102.2 84;" xml:space="preserve">
<g>
	<linearGradient id="SVGID_1_" gradientUnits="userSpaceOnUse" x1="1.7886" y1="41.4869" x2="101.7886" y2="41.4869">
		<stop  offset="0" style="stop-color:#CCE0F4"/>
		<stop  offset="6.405089e-02" style="stop-color:#C3DCF2"/>
		<stop  offset="0.1706" style="stop-color:#A9D2EE"/>
		<stop  offset="0.3066" style="stop-color:#80C2E7"/>
		<stop  offset="0.4649" style="stop-color:#47ACDE"/>
		<stop  offset="0.5674" style="stop-color:#1E9CD7"/>
		<stop  offset="0.8652" style="stop-color:#0075BE"/>
		<stop  offset="0.9944" style="stop-color:#005B97"/>
	</linearGradient>
	<polygon style="fill:url(#SVGID_1_);" points="101.8,1.5 51.8,81.5 1.8,1.5 	"/>
	<g>
		<g>
			<g>
				<g>
					<path style="fill:#38C4A8;" d="M101.8,2.2c0.2-0.1,0.1-0.3-0.4-0.2l-0.3,0.3L101.8,2.2z"/>
					<path style="fill:#38C4A8;" d="M99,1.5c-0.5,0.2-1.1,0.4-0.7,0.7c0.5-0.3,0.6-0.2,1.1-0.6c0.4,0,0.7,0.1,0.7,0.2
						c0.1-0.1,0.7,0.1,0.9-0.1c-0.5-0.3-1.2-0.3-2-0.1C98.8,1.7,98.9,1.6,99,1.5z"/>
					<path style="fill:#38C4A8;" d="M58,1l0.3,0C58.2,1,58.1,1,58,1z"/>
					<path style="fill:#38C4A8;" d="M32.7,0.8c0.2,0,0.3,0,0.3-0.1C32.8,0.8,32.6,0.8,32.7,0.8z"/>
					<path style="fill:#38C4A8;" d="M28.3,0.5c0.1,0,0.2,0,0.3,0C28.5,0.5,28.4,0.5,28.3,0.5z"/>
					<path style="fill:#38C4A8;" d="M58,1l-0.7-0.1C57.3,1,57.7,1,58,1z"/>
					<path style="fill:#38C4A8;" d="M93.3,2.3c0.1,0,0.3,0,0.4-0.1L93.3,2.3C93.3,2.3,93.3,2.3,93.3,2.3z"/>
					<path style="fill:#38C4A8;" d="M69.2,0.8l0.2,0c0.1,0,0.1-0.1,0.2-0.1L69.2,0.8z"/>
					<path style="fill:#38C4A8;" d="M77.8,0.7c-0.2,0-0.3,0.3-0.3,0.4c0.1-0.1,0.3-0.2,0.4-0.2C77.9,0.8,77.9,0.8,77.8,0.7z"/>
					<path style="fill:#38C4A8;" d="M91.4,1.2l0.2,0C91.6,1.2,91.5,1.2,91.4,1.2z"/>
					<path style="fill:#38C4A8;" d="M63.1,0.7c0,0,0-0.1-0.1-0.1C63,0.6,63,0.7,63.1,0.7z"/>
					<path style="fill:#38C4A8;" d="M95.4,9.2C95.4,9.2,95.4,9.2,95.4,9.2C95.4,9.2,95.4,9.2,95.4,9.2z"/>
					<path style="fill:#38C4A8;" d="M101.9,1.5l-0.1,0.1c0,0,0.1,0.1,0.1,0.1L101.9,1.5z"/>
					<path style="fill:#38C4A8;" d="M20.4,0.1C20.4,0.1,20.4,0.1,20.4,0.1C20.7,0.1,20.5,0.1,20.4,0.1z"/>
					<path style="fill:#38C4A8;" d="M29.5,48c-0.2-0.8,1,1,0.6-0.2C30,47.9,29.1,47.1,29.5,48z"/>
					<path style="fill:#38C4A8;" d="M93.1,2.3l-0.4,0C92.9,2.3,93,2.3,93.1,2.3z"/>
					<path style="fill:#38C4A8;" d="M30.1,47.8L30.1,47.8l0-0.1C30,47.7,30,47.7,30.1,47.8z"/>
					<path style="fill:#38C4A8;" d="M0.3,0.3c0.1,0,0.3,0.1,0.5,0.1C0.7,0.4,0.6,0.3,0.3,0.3z"/>
					<path style="fill:#38C4A8;" d="M15.8,0.7l-0.3,0C15.6,0.7,15.7,0.7,15.8,0.7z"/>
					<path style="fill:#38C4A8;" d="M4.7,7.6C4.7,7.8,4.7,7.8,4.9,8c0,0,0-0.1,0-0.1C4.8,7.9,4.7,7.8,4.7,7.6z"/>
					<path style="fill:#38C4A8;" d="M8.6,13.8c0,0,0-0.1,0-0.1c0-0.1-0.1-0.1-0.1-0.2L8.6,13.8z"/>
					<path style="fill:#38C4A8;" d="M83.7,28.2c0.2-0.1,0.3-0.1,0.4-0.2C83.8,28.1,84.3,27.1,83.7,28.2z"/>
					<path style="fill:#38C4A8;" d="M93.3,2.2c0,0.1-0.1,0.1-0.2,0.1c0.1,0,0.2,0,0.2,0C93.4,2.2,93.4,2.2,93.3,2.2z"/>
					<path style="fill:#38C4A8;" d="M6.7,6.7l0.6,1C7.1,7.4,6.9,7,6.7,6.7z"/>
					<path style="fill:#38C4A8;" d="M55.7,73l0.1-0.2C55.8,72.8,55.8,72.9,55.7,73z"/>
					<path style="fill:#38C4A8;" d="M9.2,10.6c0,0.2,0.1,0.4,0.2,0.7c0,0,0.1,0.1,0.1,0.1L9.2,10.6z"/>
					<path style="fill:#38C4A8;" d="M84.1,28.1L84.1,28.1L84.1,28.1z"/>
					<path style="fill:#38C4A8;" d="M87.6,21.2c-0.6,0.9,0,0.6,0.1,0.9c-0.6,1.2-0.6,0.4-1,0.7c-0.4,0.8-0.4,1.5-0.7,2
						c-0.1,0-0.2,0.1-0.1-0.1c-0.2,0.9-1.4,2.2-1.6,3.3c-0.1,0-0.1,0.1-0.1,0.1c0.2,0,0.4,0,0.5,0.1c-0.3,0.4-0.3,0.9-0.6,0.9
						c0.2-0.3,0.1-0.3,0.1-0.5l-0.2,0.5c-0.5,0.2,0.3-0.7,0.1-0.8c-0.4,0.9-0.8,2.1-1.3,2.7c-0.4,0,0.9-1.6,0.1-0.9l0.8-1
						c-0.9,0.5,0.4-0.6-0.5-0.2c-0.9,1.3-0.8,1.6-1.7,2.9c0,0.4,0.3,0,0.3,0.5c-0.9,2.1-1.7,1.1-2.2,2.7c0,0.5,0.2,0.9-0.6,1.7
						l-0.1-0.5c-0.8,1.3,0,1-1.1,2.3c0-0.3,0.5-1.1,0.4-0.9c-0.8,0.7-0.2,0.7-0.6,1.4l-0.4,0c-0.8,1.4-1.6,3.1-2.5,4.7
						c0-0.1,0-0.5-0.3-0.2c-1.1,2-2.6,4.1-4,5.9L70,50.3c-0.1,0.2-0.3,0.2-0.2,0c-0.6,0.7,0.1,0.1,0,0.5c-0.2,0.4-0.5,0.5-0.4,0.1
						c-0.6,1.4-1.8,4-3,5.1l0.1-0.3c-0.8,1-0.2,1.5-1.1,2.3l0.1-0.2c-1.5,2.2-2.9,4.9-4.4,6.4c0.2,0.6-1.6,2.2-1.2,2.6
						c-1.1,1.2-0.9,0.7-2.2,2.5c-0.3,0.5-0.1,0.9-0.5,1.6L57,70.9l-0.2,1l-0.6,0.2l-0.3,0.6c0.2-0.2,0.4-0.4,0.5-0.3
						c-0.4,1-1.5,2.1-1.7,2l-1.1,2.2c-0.1-0.1,0.1-0.5,0.2-0.8c-0.4,1.3-0.4,0-0.8,1.2c0.1-0.1,0.1,0.2,0.1,0.2
						c-0.2,0.2-0.5,0.6-0.8,1.1l-0.2,0.3l0,0.1c0,0.1-0.1,0.1-0.1,0.2c0,0-0.1-0.3-0.1-0.3c0,0-0.1,0.1-0.1,0.1
						c-0.1-0.1-0.1-0.1-0.2-0.2c0,0.1-0.3-0.4-0.5-0.7l-0.6-1c0.3,0.7-0.1,0.7-0.4,0.2l0.1-0.4c-0.4-0.2,0.2,0.6-0.4,0.1
						c-0.4-0.7,0-0.6,0.4-0.3l-0.6-0.7c0.1-0.1,0.2,0.1,0.3,0c-0.4-0.2-0.6-1.6-1.2-1.8l0.1-0.1c-1.1-1.8-1.7-2.5-2.6-3.9
						c-0.3,0.1-0.6-0.5-1-0.8c-0.6-1.1-1.1-2.4-1.9-3.6c-0.7-0.8-0.4-0.1-0.8-0.4c0.2-0.2-0.6-1.5-0.1-0.9c-1-1.5-1.3-1.9-2.6-3.7
						c0,0.3,0.1,0.5,0,0.4c-0.3-0.3-0.4-0.9-0.3-0.9l0.1,0.1c-1.7-2-2.5-5.4-4-6.8l0.1,0.1l-1.4-1.6c-0.5-0.8,0.5,0.4,0.2-0.3
						c-1.6-1.7-1.8-3.1-3.1-4.5c-0.1-1.6-2.8-4.3-3.4-6.2L28,40.9c-0.4-0.3-0.2-0.6-0.4-0.9c-0.1,0.1,0.2,0.5-0.1,0.3
						c-2.4-3.5-4.5-7.6-6.6-11.4c-0.8-1.4-1.3-0.3-2-2.2l0.6,0.3c-2-2.5-3.5-5.6-5.5-8.1c0.2,0.1,0.3,0.1,0.4,0.3
						c-0.2-0.7-1.3-2.1-1.5-2c-0.2-0.4,0.1-0.2,0-0.5c-0.2-0.6-1.2-1.3-1.1-1.7c0-0.1,0.2,0.1,0.2,0.2C11.7,15,11,13.5,11,14
						c-0.5-1.1-1.3-1.9-1.7-2.8c-0.6-0.4-1-1.8-1.4-1.7c0.4-0.2-0.8-2-1.4-2.5c0.2,0.1-0.2-0.6,0.1-0.5C6.2,5.8,5.7,5.2,5.6,5.5
						C5.4,4.7,4.9,4,4.4,3.5C4.3,3.3,4.3,3.3,4.2,3.3c0,0-0.1-0.1-0.1-0.1c0-0.1,0-0.2,0.2-0.1C4.2,2.9,4.1,2.8,4,2.7
						c0,0,0.1-0.1,0.3-0.1l0.2-0.1l0.1,0c0.1,0,0,0,0.2,0c1-0.1,1.9-0.1,2.9-0.2c-0.1,0.5-2.5,0-2.4,0.5c2.2-0.2,3.4-0.6,5.6-0.5
						c0.6,0.1-0.3,0.2-0.5,0.3c2.2-0.2,4.2,0,6.1-0.2c0,0-0.2,0.1-0.4,0.1c0.4,0,0.9,0.1,0.8-0.1l-0.4,0.1c-0.6-0.3,1.5-0.6,1.6-0.8
						C17.4,2.3,20,1.9,19,2.6c0.3,0,0.6-0.1,0.5-0.3c0.4,0,0.5,0.1,0.1,0.3c1.4-0.1,0.9-0.3,2.1-0.3c0,0.1-0.3,0.1-0.4,0.3
						c0.6-0.2,1.3-0.4,2.3-0.3c-0.1,0.1,0.1,0.1-0.3,0.1c1.8,0,3.1-0.5,5-0.3c-0.6,0.4,0.7,0.1,0.8,0.5l1.1-0.1l-0.4-0.2
						c0.9,0,1.7-0.3,2.5-0.1l-0.7,0.2l1.7-0.1l-1-0.1c0.9-0.2-0.1-0.5,1.1-0.4c-0.3,0,0.9,0,1.4,0.2l0,0c0.5-0.1,0.9-0.2,1.6-0.2
						c0.2,0.1-0.1,0.4,0,0.5c0.5-0.3,2.2-0.1,2.7-0.4c-0.2,0.1-0.2,0.3-0.1,0.3l0.4-0.3C39.9,2,40,2,39.9,2.2c1.3,0-0.4-0.5,1.1-0.3
						C40.9,1.9,41,2,40.7,2c1.5,0.1,3-0.2,4.4,0c0.4,0.4-1.2,0.1-0.8,0.4c2-0.1,4.2-0.5,6.2-0.4l-0.4,0c0.3-0.5,1.5,0.3,2.5,0
						c-0.2,0-0.3,0.3-0.3,0.2c1.4,0.1,2.8-0.1,4.8-0.3L57,2.1c0.8,0.1,2.1,0.1,3,0.1c0.3-0.1,0.7-0.1,0.4-0.3
						c2.7,0.8,5.1-0.4,7.4,0.2c-0.3,0-0.7,0.1-0.4,0.1l2-0.1c-0.2-0.2-0.3-0.1-0.7-0.3c0.3-0.1,0.8-0.2,1.3-0.2
						c-0.9,0.2,0,0.4,0.4,0.5c-0.1-0.1,0.1-0.1,0-0.2c1,0.4,0.2-0.5,1.6-0.2l-0.1,0.1c0.5-0.1,1-0.2,1.6-0.2
						c0.2,0.3-0.6,0.1-0.6,0.3c0.8,0,1.6-0.5,2.3-0.2c-0.3,0.1-0.8,0.1-1.2,0.1C74.9,2.1,75,2,75.6,2.1l-0.1,0l1.4,0.1l-0.3-0.1
						c1-0.7,2.1-0.1,3.4-0.6c-1.3,0.4-0.2,0.2-0.3,0.6c0.3,0.1,0.9,0.2,0.7,0.3c0.6-0.2,1.1,0.2,2-0.2c0,0.1,0.7,0,0.5,0.3
						c0.8-0.1-0.2-0.2-0.1-0.3c1.3-0.3,3,0.4,4.9-0.1c1.6-0.2,1.9-0.5,3.4-0.7c0.5,0.2-0.4,0.4-0.4,0.4c0.8,0.1,1.4,0.1,2.2,0
						c-0.2,0.1,0,0.2,0.2,0.3c0.6,0,0.4-0.4,1.2-0.2C94.2,2,94,2.1,93.7,2.3c0.7-0.1,1.4-0.3,2.2-0.4c0.2,0.2-0.5,0.3-0.7,0.4
						c0.8-0.1,2.2-0.2,2.4-0.4l-0.5-0.1C97.4,1.7,97.2,2,97,2c-0.7,0.2-1-0.1-1.1-0.2l0.5-0.1c-0.5-0.6-2.1,0.1-3.2,0.1l0.4-0.4
						l-1.1,0.3c-0.2-0.1-0.4-0.3,0.1-0.4c-0.8-0.2-0.7,0.1-1.3-0.1c-0.1,0,0-0.1,0-0.1l-0.8,0.1C90.8,1.2,90.5,1,91,1.1
						c-1.3-0.2-2.2,0.3-2.7,0l0.1,0c-1.9,0.1-0.2,0.3-1.6,0.7L85.9,1l-0.2,0.3c-0.2,0-0.6,0-0.5-0.2c-0.7,0.2,0.1,0.1-0.3,0.3
						c-0.9-0.3-2.6,0.1-2.8-0.4C81.8,1.3,83,1.3,82,1.4c-0.3-0.5-1.1,0.1-2-0.2c0.3-0.3,1.1-0.1,0.2-0.4c-0.5,0.5-1.7-0.1-2.4,0
						c0,0.4-1.6,0.2-2.8,0.3c0.1-0.1-2.3-0.2-3.4-0.3l0-0.1c-0.2,0.4-1.4,0.3-2.2,0.4c0-0.2,0.2-0.3,0.6-0.4l-0.8,0
						C69.2,0.9,69,0.9,68.5,1l0.2-0.3c-1.1,0-2.1,0.3-3.5,0.1c-0.1,0.3,1.1,0.7-0.4,0.9c-0.1-0.1-0.1-0.4,0.3-0.4
						c-0.1,0-0.4,0.1-0.7,0.1L65,1.1c-0.6-0.1-0.3,0.2-0.8,0.2c0-0.2-0.4-0.1-0.3-0.3c0.1,0,0.4,0.1,0.6,0c-0.6,0-1.2-0.2-1.4-0.3
						c0,0.1,0,0.3-0.4,0.3c-1.1,0-0.4-0.2-1-0.3c-0.3,0.1-0.9,0-0.9,0.3c-0.3,0-0.4-0.1-0.5-0.2c-0.5,0.1-2.5,0-1.9,0.4l0.1,0
						c0,0-0.1,0-0.1,0h0h0c-1.8,0.3-3.7-0.2-5.5,0l0-0.1c-1.1,0.1-2.3,0.1-3.1,0.3c-0.3,0-0.7-0.2-0.6-0.3c-0.8,0.1-0.9,0.2-2.1,0
						C48,0.8,46.9,0.8,48,0.8c-1-0.1-1.3-0.2-2.4,0c0.4-0.3-0.8-0.3-1.3-0.2L45,0.8c-0.6,0-1.1,0-1.5,0l0.3-0.3
						c-2.1-0.4-3.9,0.7-5.5,0c-0.6,0.2,1.2,0.2,0.7,0.4c-1,0-2-0.5-2.3-0.5c-1.4-0.2-1.3,0.5-2.7,0.4c0.2,0.1,0.4,0.4-0.7,0.5
						c-1,0-1.2-0.5-0.6-0.6c0.2,0,0.4,0,0.3,0.1c0.3,0,0.7-0.1,0.3-0.2l-0.1,0.1c-0.5-0.1-1.8-0.1-1.5-0.3c-0.7,0.1-0.3,0.2,0.2,0.3
						c-1.3-0.2-2,0-3.3-0.1c0.2,0.1,0.4,0.2,0.2,0.2c-1.9-0.1-0.8,0.2-2.1,0.3c-0.7-0.2,0.3-0.4-1-0.3c-0.8-0.1-0.2-0.3,0.1-0.4
						c-1.2,0.2-2.2-0.2-2.9-0.2L23.5,0c-0.4,0.1-0.7,0.1-1,0.1l0.4,0.2c-0.4,0-0.7,0-0.7-0.1c-0.4,0.2,0.3,0.4-0.5,0.6
						c-0.5-0.1-1.5,0.1-1.7-0.2c1.5,0.1-0.2-0.3,1.1-0.4c-0.3,0-0.6,0-0.9,0c-0.1,0,0.1-0.1,0.2-0.1c-1.5-0.3-0.7,0.4-2.2,0.3
						c0.2-0.2-0.4-0.3-0.6-0.3c0.6,0,0.3,0.3-0.3,0.4c-1-0.1-1.1,0.1-1.6,0.1l0.6,0.1C16.1,0.9,15.7,0.9,15,1
						c-0.1-0.1,0.6-0.1,0.4-0.2c-0.8,0.3-1.7-0.3-2.8-0.1c-0.5-0.1,0-0.3-0.5-0.4C10.9,0.5,10.8,0,9.6,0.2C9.9,0.5,10,0.4,9.1,0.6
						l2-0.2L9.8,0.8c0.6,0,1.3-0.1,1.7-0.1C10.9,0.9,11,0.8,11.3,1c-0.8-0.4-1.7,0.2-2.7,0l0-0.6c-0.7-0.1-1.4-0.1-2.1,0
						c-0.4,0-0.7,0.1-1.1,0.1c-0.2,0-0.4,0-0.6,0c-0.2,0-0.7,0-1,0l1,0.1C4.5,0.8,4.1,0.8,3.6,0.8c-0.5,0-1.1,0-1.5,0
						C2,0.6,1.4,0.5,0.8,0.4C0.9,0.5,0.5,0.5,0,0.5C0.4,1.1,0.9,1.8,1.3,2c0,0,0.1,0.2,0.2,0.5c0.1,0.3,0.2,0.5,0.2,0.5
						C1.9,3.6,2.2,4,2.5,4.3C2.7,4.6,2.8,4.7,3,4.9c0.4,0.3,0.7,0.6,1.1,1.2C3.7,5.8,3.9,6.4,3.3,5.7c0.3,0.4,0.5,0.8,0.6,0.8
						c0,0.3,1,1,1,1.5C5.1,8.1,5.3,8,5.6,8.5c0,0.1-0.1,0-0.1,0c0.1,0,0.6,0.7,0.5,0.1c0.3,1.6,2.3,3.6,2.5,5
						c0.6,0.9,1.4,1.9,1.9,2.8c-0.1,0-0.1,0-0.2-0.1c0.6,1.2,0.9,0.4,1.6,1.8c0.1,0.8-0.6-0.6-0.4-0.1c-0.4,0.5,1.1,1.5,1.3,2.6
						l-0.2-0.2c0.2,0.8,1.2,1.5,1.9,2.6c0,0-0.1,0-0.1,0c0.7,0.6,1.7,1.9,2.5,2.9c-0.4-0.2-0.4-0.4-0.5-0.1c0.3,0.5,0.3-0.4,0.9,0.5
						c0.1,0.4,0.4,1.1,0.2,1.4L16.8,27c0,0.6,0.7,1.1,1,1.6l-0.2,0c0.9,1.3,1.2,1.1,2.1,2.6l0-0.2c0.8,0.6,0.2,0.8,1,1.4L20.6,33
						c0.4,0.5,1.5,1.6,2.1,2.6c-0.6-0.4-1.4-1.4-2-2c0.3,0.5,1.1,1.8,1.5,1.9c-0.2-0.2-0.4-0.4-0.5-0.6c0.7,0.5,1.3,1.2,2,2.3
						c-0.8,0.2,1.5,2.8,1.5,3.9c1.4,1.7,2.2,3.7,3.6,5.9c0-1.1,0.4,0.6,0.8,0.2c0.3,0.5,0.5,0.7,0.5,0.7l0.6,1.7
						c0.1,0.5-0.4-0.4-0.5-0.3c0.6,1.1,0.1,0.6,0.4,1.4c0.1-0.3,0.5,0.2,0.8,0.9l-0.3-1c1.2,1.4,0.4,1.6,1.6,3l-0.5-0.4
						c0.6,0.7,1.8,2.9,2.7,3.4c0,0.2,0,0.5-0.3,0.1c1.1,1.9,3.1,3.9,3.7,5.6l-0.2-0.1c0.3,0.3,0.6,0.5,0.8,1c-0.1,0-0.2-0.1-0.1,0.1
						c0.2,0.2,0.8,0.8,1,1.3l-0.4-0.3c1,2,2.1,2.6,3.2,4.1c-0.4,0.2,0.4,1.8,0.8,2.5l-0.1,0c1.3,2.2,2.6,3.5,4,5.4
						c0.2,0.7,0.7,1.7,1.3,2.7c0.4,0.7,0.9,1.4,1.3,2.1c0.6,1,1.2,1.9,1.7,2.9c0.2-0.3,0.4-0.5,0.5-0.8c-0.4,0.4,0-0.7,0.3-1.3
						c0.3-0.3,0.5-0.9,0.8-1.4c0.2-0.4,0.4-0.7,0.5-0.5l-0.2,0.3c0.1,0,0.2-0.1,0.3-0.2c0.1-0.1,0.2-0.2,0.3-0.2
						c0.1-0.1,0.3-0.3,0.4-0.5c0.3-0.4,0.5-0.8,0.7-1.2l-0.4-0.4c1.9-1.6,3-5.3,4.2-6c0.2-0.5,0.6-1.1,0.7-1.7l0.2,0.2
						c0.9-1.3,1.3-1.9,2.3-3.6l0,0.4c0.6-0.9,0-1.6,0.5-2.4l0.5,0c1-1.6,2.3-3,3-4.8c0,0.1,0.1,0.2,0,0.4c0.5-0.7,2.1-2.7,1.4-2.8
						c0.3,0.2,1.1-1.6,1.5-2.6l0.2,0.3c0.2-0.9,0.1-1,0.6-2.1c0.2-0.2,0.3-0.1,0.1,0.2c0.6-0.7,0.2-0.8,0.9-1.7L71,52.3
						c0.5-0.8,0.4-0.8,0.5-1.4c0.2-0.6,1-1.5,1.3-1.5c-0.1-0.2,0-0.8,0.4-1.2c0.1,0,0.1,0.2,0,0.3c1-1.3,1-2.2,1.8-3
						c0.1,0,0.2,0,0.2-0.1c-0.7,1.1-1.3,2-1.2,1.9c0.2,0.1,0.8-0.7,0.7,0.2c0.3-0.8,0.7-2.2,1.3-3c0,0,0.1-0.1,0.1-0.1l0,0.1
						c0.1-0.2,0.2-0.4,0.3-0.6c0.2-0.3,0.3-0.4,0.5-0.7c0.2,0,0.7-1,1-1.4c-0.3-0.1,0.1-0.7-0.4-0.2c0.1-0.1,0,0.1-0.2,0.4
						c0,0.1-0.1,0.2-0.1,0.2c0,0,0,0,0,0c-0.2,0.3-0.4,0.7-0.7,1.1c0.1-0.4,0.2-0.9,0.7-1.3c0-0.3,0-0.7,0-0.9
						c0.7-0.4,1.6-1.4,1.9-1.5c0.7-1.4,1.9-3.2,2-4.4c0.2-0.4,0.4-0.4,0.6-0.5c-0.1,0.2-0.3,0.5-0.3,0.7c0.4-0.8,1.4-2.3,1.2-2.7
						c0.7-0.9-0.1,0.7,0.7-0.6l0,0.2c2.1-2.3,1.9-4.7,4.3-7.2c-0.2,0.2-0.2,0.3-0.3,0.3c2.3-3.1,4-7,6.5-9.9
						c0.7-0.9,0.5-1.1,0.7-1.8l0.4,0l0.3-1.1c0.6-1.5,2.1-2,2.8-4l-0.3,0.1c0.4-0.6,1.1-2,1.3-1.8c0-0.1-0.1-0.3,0.2-0.5l0.1,0.1
						l0.7-1.7c0.8-1.1,0.4,0.5,1.5-1.2c0.4-0.7,0.8-2.1,0.5-1.9c-0.2,0.3-0.5,0.6-0.6,0.5l0.3-0.6c-0.3-0.4-0.5-1.1-1.6,0.2L99.8,3
						l-0.4,0.2l0.5-0.9c-0.5,0.4-0.5,0.8-0.6,1.2c-0.2,0-0.3,0.1-0.5,0.3l-0.2,1.2c-0.2,0,0-0.6-0.5,0c-0.1,0.6,0.6-0.2,0.3,0.6
						c-0.5,0.4-0.5,0.1-0.7,0.8c-0.2,0-0.1-0.1,0-0.4c-0.2,0.6-0.8,1.4-0.7,1.8c-0.5,0.4-1,1.7-1.3,1.4c0,0.2-0.3,1.1-0.5,1.5
						c0.1-1.1-1.1,1.7-1.4,1.2c0,0.9-1.2,2.4-1.7,3.6c0-0.1,0-0.2,0.1-0.3c-0.4,0.6-0.7,0.7-1,1.1c0.3,0.3-0.2,1.3-0.4,2
						c-0.8,0.6-0.1-0.7-0.6-0.7c0.3,0.1-0.6,1.5-0.2,1.4c-0.6,0.5-0.4,0.4-0.9,0.6c0.4,0.4-0.3,0.6-0.3,1.2c-0.7,0.7-0.5,0-1,1
						C87.2,22.1,87.6,21.2,87.6,21.2z M74.5,43.7L74.5,43.7c0.1-0.2,0.2-0.4,0.3-0.5C74.7,43.3,74.7,43.5,74.5,43.7z M73.4,45.6
						c0.2-0.2,0.3-0.5,0.5-0.8c0.1,0,0.2,0.1,0,0.3C73.9,44.9,73.6,45.3,73.4,45.6z M77.5,42.7c-0.1,0.3-0.3,0.4-0.3,0.4
						c0.1-0.1,0.2-0.3,0.3-0.5c0,0,0,0,0-0.1C77.4,42.5,77.5,42.6,77.5,42.7z"/>
					<path style="fill:#38C4A8;" d="M77.5,41.9c0,0,0-0.1,0.1-0.1c-0.1,0-0.1,0.1-0.2,0.1c0,0.1,0,0.1,0,0.2
						C77.4,42.1,77.5,42,77.5,41.9z"/>
					<path style="fill:#38C4A8;" d="M58.3,1.1L58.3,1.1C58.3,1.1,58.4,1.1,58.3,1.1C58.4,1.1,58.4,1.1,58.3,1.1z"/>
					<polygon style="fill:#38C4A8;" points="56.9,70.9 57,70.9 57,70.7 					"/>
					<path style="fill:#38C4A8;" d="M70.4,2c0,0,0.1,0.1,0.2,0.1C70.5,2.1,70.5,2.1,70.4,2z"/>
					<path style="fill:#38C4A8;" d="M75.6,2.1l0.7,0.1C76,2.1,75.8,2.1,75.6,2.1z"/>
					<path style="fill:#38C4A8;" d="M79.6,2.2c0.1,0,0.1-0.1,0.1-0.1l0,0L79.6,2.2z"/>
					<path style="fill:#38C4A8;" d="M16,2.6c-0.1,0-0.1,0-0.2,0C15.5,2.6,15.8,2.6,16,2.6z"/>
					<path style="fill:#38C4A8;" d="M34.9,1.9C34.7,2,34.5,2,34.3,2C34.7,2.1,34.9,2.1,34.9,1.9z"/>
					<polygon style="fill:#38C4A8;" points="6.6,6.6 6.6,6.6 6.7,6.7 					"/>
					<path style="fill:#38C4A8;" d="M33.5,2c0.3,0.1,0.6,0,0.9,0C34.1,2,33.7,2,33.5,2z"/>
					<path style="fill:#38C4A8;" d="M96.9,2.4l0.2,0c0,0,0,0,0,0L96.9,2.4z"/>
					<path style="fill:#38C4A8;" d="M97.1,2.3l0.2,0C97.2,2.3,97.1,2.3,97.1,2.3z"/>
					<path style="fill:#38C4A8;" d="M97.8,2.2l-0.4,0.1C97.5,2.3,97.7,2.3,97.8,2.2z"/>
					<path style="fill:#38C4A8;" d="M91.6,2.2l-0.1,0.1C91.6,2.3,91.6,2.3,91.6,2.2z"/>
					<path style="fill:#38C4A8;" d="M90,2.3c0.4,0,1,0.2,1.5,0.2l0-0.1C91.3,2.5,90.4,2.1,90,2.3z"/>
					<path style="fill:#38C4A8;" d="M83.3,1l1.3,0.1c-0.2-0.1-0.5-0.3,0.1-0.3C83,0.5,85,1,83.3,1z"/>
					<path style="fill:#38C4A8;" d="M79.1,0.8c0.7-0.1,0-0.2,0-0.2C78.7,0.7,78.6,0.8,79.1,0.8z"/>
					<path style="fill:#38C4A8;" d="M48.9,0.8L49,0.6C48.4,0.6,49,0.7,48.9,0.8z"/>
					<polygon style="fill:#38C4A8;" points="43.1,2.2 43.7,2.3 43.9,2.1 					"/>
					<polygon style="fill:#38C4A8;" points="39.7,0.3 40,0.3 39.1,0.4 					"/>
					<path style="fill:#38C4A8;" d="M7.7,12.9l0.2-0.3C7.6,12.3,7.2,12.4,7.7,12.9z"/>
					<path style="fill:#38C4A8;" d="M19.5,31.2c0,0.3,0.2,0.9,0.6,1.1C19.8,31.9,19.7,31.4,19.5,31.2z"/>
					<polygon style="fill:#38C4A8;" points="56,77.1 55.8,77.5 56.2,76.8 					"/>
				</g>
			</g>
		</g>
	</g>
</g>
<g>
</g>
<g>
</g>
<g>
</g>
<g>
</g>
<g>
</g>
<g>
</g>
<g>
</g>
<g>
</g>
<g>
</g>
<g>
</g>
<g>
</g>
<g>
</g>
<g>
</g>
<g>
</g>
<g>
</g>
</svg>
